<?xml version="1.0" encoding="utf-8"?>
<svg xmlns="http://www.w3.org/2000/svg" height="256" width="256" viewBox="0 0 256 256">
  <g>
    <ellipse cy="128" cx="128" stroke-width="11.6253797237926" ry="122.187310138104" rx="122.187310138104" stroke="#AD4242" fill="transparent" />
    <path id="path1" transform="rotate(0,128,128) translate(35.040494632188,35) scale(5.8126898618963,5.8126898618963)  " fill="#AD4242" d="M2,20.016956C2.0169987,25.523976,6.5019841,29.998954,12.013001,29.998954L14.947998,29.998954C20.458985,29.998954,24.944001,25.523976,24.960999,20.016956z M9.2816433,11.277565L6.5858178,11.814028 6.5913763,11.827922C6.6284499,11.915079,6.6692576,12.000516,6.7137527,12.084016L7.5446567,13.648015C8.1277775,14.818265,8.7718911,16.113332,7.4061961,17.950516L7.3549294,18.016955 9.8750548,18.016955 10.928175,16.657988C11.256187,16.161988,11.252187,15.736988,10.871173,14.964988L9.8361353,13.021986C9.5593752,12.502236,9.3775401,11.946732,9.2940125,11.375229z M13.759736,10.386434L11.25262,10.885345 11.258424,10.968728C11.300251,11.356032,11.415568,11.732986,11.6012,12.082986L12.650238,14.052987C13.099255,14.961988,13.561272,16.310988,12.551235,17.824989L12.402679,18.016955 14.811498,18.016955 15.370404,17.016996C15.885464,16.023998,15.742447,15.635998,15.209385,14.562001L14.38829,13.022004C13.995744,12.279506,13.786422,11.478414,13.761547,10.627517z M30.549996,1.9073486E-06C30.97736,0.0010147095 31.3699,0.27421188 31.502337,0.70320129 31.667336,1.2301903 31.371336,1.7911777 30.843337,1.9541721L3.8967628,10.311369 30.789517,4.958642C30.857766,4.9446411 30.925656,4.937953 30.992419,4.9380255 31.459759,4.9385309 31.871878,5.2702818 31.965502,5.74368 32.073502,6.2857065 31.722506,6.8127317 31.180512,6.9197369L15.78748,9.9829168 15.784574,10.006654C15.705825,10.772024,15.829645,11.468945,16.155495,12.084006L16.987593,13.648003C17.675673,15.032,18.080719,16.136997,17.130608,17.964994L17.101603,18.016955 26.960999,18.016955 26.960999,19.985949C26.960999,26.609975,21.571991,31.998954,14.947998,31.998954L12.013001,31.998954C5.389008,31.998954,4.2701868E-07,26.609975,0,19.985949L0,18.016955 4.6592588,18.016955 5.7488641,16.829014C6.453783,15.945015,6.3087997,15.652015,5.7668623,14.563015L4.9469571,13.022016C4.840094,12.820641,4.7467298,12.613219,4.6669697,12.400488L4.5998878,12.209224 2.5808243,12.611013C2.5148253,12.625013 2.448826,12.631014 2.3848264,12.631014 1.9168318,12.631014 1.4998364,12.301998 1.4058369,11.825975 1.3309006,11.453332 1.4738562,11.088252 1.7466427,10.861696L1.756172,10.854537 1.7029963,10.843845C1.3723782,10.763733 1.0913543,10.517348 0.9832914,10.167982 0.81929136,9.6409941 1.1152918,9.0800066 1.6422922,8.9170113L30.251336,0.044218063C30.350897,0.014030457,30.451374,-0.00023078918,30.549996,1.9073486E-06z" />
  </g>
</svg>

